REM DIRINDEX 1\5,1\2\6,1\2\7,1\3\8,1\3\9,1\4\10,1\4\11,1\4\12
REM DIRNAME cjc026,folder01,folder02,folder03,folder04,folder05,folder06,folder07,folder08,folder09,folder10,folder11
TITLE ""
FILE "EJE_DB3000_5th_5C_06.mp3" MP3
  TRACK 01 AUDIO
    TITLE "0:"
    INDEX 01 00:00:00
  TRACK 02 AUDIO
    TITLE "10:cjc026_10323"
    INDEX 01 00:00:10
  TRACK 03 AUDIO
    TITLE "0:"
    INDEX 01 00:01:24
  TRACK 04 AUDIO
    TITLE "11:cjc026_10324"
    INDEX 01 00:01:62
  TRACK 05 AUDIO
    TITLE "0:"
    INDEX 01 00:03:20
  TRACK 06 AUDIO
    TITLE "12:cjc026_10325"
    INDEX 01 00:03:58
  TRACK 07 AUDIO
    TITLE "0:"
    INDEX 01 00:05:00
  TRACK 08 AUDIO
    TITLE "10:cjc026_10326"
    INDEX 01 00:05:35
  TRACK 09 AUDIO
    TITLE "0:"
    INDEX 01 00:06:63
  TRACK 10 AUDIO
    TITLE "11:cjc026_10327"
    INDEX 01 00:07:17
  TRACK 11 AUDIO
    TITLE "0:"
    INDEX 01 00:08:50
  TRACK 12 AUDIO
    TITLE "12:cjc026_10328"
    INDEX 01 00:09:08
  TRACK 13 AUDIO
    TITLE "0:"
    INDEX 01 00:10:35
  TRACK 14 AUDIO
    TITLE "10:cjc026_10329"
    INDEX 01 00:10:70
  TRACK 15 AUDIO
    TITLE "0:"
    INDEX 01 00:12:09
  TRACK 16 AUDIO
    TITLE "11:cjc026_10330"
    INDEX 01 00:12:47
  TRACK 17 AUDIO
    TITLE "0:"
    INDEX 01 00:14:00
  TRACK 18 AUDIO
    TITLE "12:cjc026_10331"
    INDEX 01 00:14:35
  TRACK 19 AUDIO
    TITLE "0:"
    INDEX 01 00:15:49
  TRACK 20 AUDIO
    TITLE "10:cjc026_10332"
    INDEX 01 00:16:09
  TRACK 21 AUDIO
    TITLE "0:"
    INDEX 01 00:17:12
  TRACK 22 AUDIO
    TITLE "11:cjc026_10333"
    INDEX 01 00:17:48
  TRACK 23 AUDIO
    TITLE "0:"
    INDEX 01 00:19:08
  TRACK 24 AUDIO
    TITLE "12:cjc026_10334"
    INDEX 01 00:19:43
  TRACK 25 AUDIO
    TITLE "0:"
    INDEX 01 00:20:47
  TRACK 26 AUDIO
    TITLE "10:cjc026_10335"
    INDEX 01 00:21:07
  TRACK 27 AUDIO
    TITLE "0:"
    INDEX 01 00:22:21
  TRACK 28 AUDIO
    TITLE "11:cjc026_10336"
    INDEX 01 00:22:56
  TRACK 29 AUDIO
    TITLE "0:"
    INDEX 01 00:24:44
  TRACK 30 AUDIO
    TITLE "12:cjc026_10337"
    INDEX 01 00:25:04
  TRACK 31 AUDIO
    TITLE "0:"
    INDEX 01 00:26:18
  TRACK 32 AUDIO
    TITLE "10:cjc026_10338"
    INDEX 01 00:26:53
  TRACK 33 AUDIO
    TITLE "0:"
    INDEX 01 00:27:67
  TRACK 34 AUDIO
    TITLE "11:cjc026_10339"
    INDEX 01 00:28:27
  TRACK 35 AUDIO
    TITLE "0:"
    INDEX 01 00:29:55
  TRACK 36 AUDIO
    TITLE "12:cjc026_10340"
    INDEX 01 00:30:18
  TRACK 37 AUDIO
    TITLE "0:"
    INDEX 01 00:31:29
  TRACK 38 AUDIO
    TITLE "10:cjc026_10341"
    INDEX 01 00:31:64
  TRACK 39 AUDIO
    TITLE "0:"
    INDEX 01 00:33:14
  TRACK 40 AUDIO
    TITLE "11:cjc026_10342"
    INDEX 01 00:33:49
  TRACK 41 AUDIO
    TITLE "0:"
    INDEX 01 00:35:12
  TRACK 42 AUDIO
    TITLE "12:cjc026_10343"
    INDEX 01 00:35:48
  TRACK 43 AUDIO
    TITLE "0:"
    INDEX 01 00:36:70
  TRACK 44 AUDIO
    TITLE "10:cjc026_10344"
    INDEX 01 00:37:33
  TRACK 45 AUDIO
    TITLE "0:"
    INDEX 01 00:38:66
  TRACK 46 AUDIO
    TITLE "11:cjc026_10345"
    INDEX 01 00:39:26
  TRACK 47 AUDIO
    TITLE "0:"
    INDEX 01 00:40:56
  TRACK 48 AUDIO
    TITLE "12:cjc026_10346"
    INDEX 01 00:41:16
  TRACK 49 AUDIO
    TITLE "0:"
    INDEX 01 00:42:46
  TRACK 50 AUDIO
    TITLE "10:cjc026_10347"
    INDEX 01 00:43:06
  TRACK 51 AUDIO
    TITLE "0:"
    INDEX 01 00:44:31
  TRACK 52 AUDIO
    TITLE "11:cjc026_10348"
    INDEX 01 00:44:64
  TRACK 53 AUDIO
    TITLE "0:"
    INDEX 01 00:46:06
  TRACK 54 AUDIO
    TITLE "12:cjc026_10349"
    INDEX 01 00:46:41
  TRACK 55 AUDIO
    TITLE "0:"
    INDEX 01 00:47:63
  TRACK 56 AUDIO
    TITLE "10:cjc026_10350"
    INDEX 01 00:48:26
  TRACK 57 AUDIO
    TITLE "0:"
    INDEX 01 00:49:40
  TRACK 58 AUDIO
    TITLE "11:cjc026_10351"
    INDEX 01 00:50:00
  TRACK 59 AUDIO
    TITLE "0:"
    INDEX 01 00:51:17
  TRACK 60 AUDIO
    TITLE "12:cjc026_10352"
    INDEX 01 00:51:52
  TRACK 61 AUDIO
    TITLE "0:"
    INDEX 01 00:52:69
  TRACK 62 AUDIO
    TITLE "10:cjc026_10353"
    INDEX 01 00:53:29
  TRACK 63 AUDIO
    TITLE "0:"
    INDEX 01 00:54:48
  TRACK 64 AUDIO
    TITLE "11:cjc026_10354"
    INDEX 01 00:55:08
  TRACK 65 AUDIO
    TITLE "0:"
    INDEX 01 00:56:25
  TRACK 66 AUDIO
    TITLE "12:cjc026_10355"
    INDEX 01 00:56:60
  TRACK 67 AUDIO
    TITLE "0:"
    INDEX 01 00:58:05
  TRACK 68 AUDIO
    TITLE "10:cjc026_10356"
    INDEX 01 00:58:37
  TRACK 69 AUDIO
    TITLE "0:"
    INDEX 01 00:59:46
  TRACK 70 AUDIO
    TITLE "11:cjc026_10357"
    INDEX 01 01:00:09
  TRACK 71 AUDIO
    TITLE "0:"
    INDEX 01 01:01:15
  TRACK 72 AUDIO
    TITLE "12:cjc026_10358"
    INDEX 01 01:01:50
  TRACK 73 AUDIO
    TITLE "0:"
    INDEX 01 01:02:58
  TRACK 74 AUDIO
    TITLE "10:cjc026_10359"
    INDEX 01 01:03:18
  TRACK 75 AUDIO
    TITLE "0:"
    INDEX 01 01:04:35
  TRACK 76 AUDIO
    TITLE "11:cjc026_10360"
    INDEX 01 01:04:70
  TRACK 77 AUDIO
    TITLE "0:"
    INDEX 01 01:06:04
  TRACK 78 AUDIO
    TITLE "12:cjc026_10361"
    INDEX 01 01:06:39
  TRACK 79 AUDIO
    TITLE "0:"
    INDEX 01 01:07:56
